<svg width="130" height="32" viewBox="0 0 130 32" fill="none" xmlns="http://www.w3.org/2000/svg">
<path fill-rule="evenodd" clip-rule="evenodd" d="M29.2678 31.0382L34.5251 28.6444L22.1063 1.63794L18.8979 8.47951L29.2678 31.0382Z" fill="#006BFF"/>
<path fill-rule="evenodd" clip-rule="evenodd" d="M3.12598 24.3316C5.4748 22.6874 8.19844 21.493 11.2169 20.7134L20.6522 0.00378418H14.3504L3.12598 24.3316Z" fill="#006BFF"/>
<path fill-rule="evenodd" clip-rule="evenodd" d="M0.812012 28.8793L6.2193 31.378C8.45818 29.2541 11.4017 28.0097 14.4602 27.545C18.4882 26.9503 22.816 27.6349 26.2443 29.3591L23.0009 22.3526C18.748 21.383 15.0549 21.6079 12.0364 22.3326C5.95943 23.8068 2.826 26.8603 0.812012 28.8793Z" fill="#006BFF"/>
<path fill-rule="evenodd" clip-rule="evenodd" d="M14.0503 18.9343C14.0503 19.4691 14.5001 19.8939 14.9099 19.8939C15.2447 19.8939 15.5445 19.8239 15.8794 19.8239C16.9239 19.8239 17.5186 19.7089 18.7529 19.8789L20.2472 20.0638C20.7669 20.0638 21.2167 19.7239 21.4416 19.3091C21.7764 18.5245 21.2567 17.8599 20.8469 16.9453L19.0178 12.9423C18.9079 12.7474 18.9079 12.6825 18.7929 12.5175C18.2682 11.8129 17.1537 11.8079 16.704 12.9024L14.2052 18.4046C14.1303 18.5545 14.0553 18.7244 14.0553 18.9393L14.0503 18.9343Z" fill="#006BFF"/>
<path fill-rule="evenodd" clip-rule="evenodd" d="M75.5844 16.3806C75.5844 15.711 75.6594 15.1912 75.8793 14.5815C75.9542 14.3167 76.0642 14.0868 76.2141 13.8669C77.2486 12.1328 79.5374 11.4981 81.3865 12.3676C82.9007 13.0973 83.7903 14.6215 83.7903 16.3407C83.7903 18.1198 82.9757 19.3891 81.5364 20.2337C80.467 20.8434 78.8778 20.8134 77.7683 20.2687C77.5084 20.1438 77.3635 20.0588 77.1386 19.8789L76.8788 19.649C76.434 19.2442 76.0642 18.6795 75.8443 18.1148C75.6944 17.615 75.5844 16.9154 75.5844 16.3706V16.3806ZM78.7978 24.0718C80.5719 24.0718 81.9362 23.7819 83.3405 22.8374L83.7853 22.5126V23.632H87.6634V9.0693H83.7853V10.2237C83.4904 10.0138 83.4505 9.93386 82.9357 9.60903C81.9362 9.01932 80.5719 8.62952 79.3525 8.62952H78.6879C77.3185 8.62952 75.6594 9.31418 74.6999 10.1438C74.6249 10.2237 74.5499 10.2687 74.48 10.3487L74.0002 10.7884C73.7403 11.0433 73.1856 11.7679 73.0007 12.0728C72.301 13.2272 71.8563 14.5565 71.8563 15.9409C71.8563 16.1508 71.8213 16.1957 71.8213 16.3806L71.8563 17.2452C72.0062 18.2947 72.0062 18.4596 72.371 19.4641C72.6659 20.2037 73.2956 21.2082 73.8103 21.713L74.1401 22.0478C74.8448 22.7075 74.9547 22.8224 75.8393 23.3172C75.9142 23.3521 75.9142 23.3621 75.9892 23.3871C76.394 23.582 76.7288 23.702 77.1736 23.8369C77.5784 23.9668 78.2431 24.0768 78.7978 24.0768V24.0718Z" fill="#13306A"/>
<path fill-rule="evenodd" clip-rule="evenodd" d="M48.3881 20.6785C47.5735 20.6785 47.0188 20.6785 46.2842 20.2987C45.8394 20.0688 45.8044 20.0188 45.4346 19.724C45.2497 19.564 45.1048 19.4241 44.9548 19.2292C44.8799 19.1393 44.8049 19.0443 44.7699 18.9493C43.8104 17.5201 43.8454 15.1263 44.8049 13.662C45.3596 12.8524 46.3591 12.1977 47.3536 12.0478C48.2782 11.9079 49.0878 11.9928 49.9423 12.4176C51.2717 13.0773 52.2712 14.5216 52.2712 16.2757C52.2712 17.64 51.8664 18.6195 51.1267 19.3591C50.4221 20.0738 49.5026 20.6735 48.3931 20.6735L48.3881 20.6785ZM40.3321 15.9409C40.3321 17.7749 40.4421 18.7495 41.2567 20.2937C41.7364 21.2032 42.3261 21.7979 43.0658 22.4676C44.1352 23.4121 45.7994 24.0718 47.2387 24.0718C48.4931 24.0718 49.2327 23.9918 50.3071 23.607C50.677 23.4821 51.0468 23.3072 51.3416 23.1223C51.8964 22.8124 51.8614 22.7974 52.2662 22.5126V23.632H56.1442V9.0693H52.2662V10.1887L51.3816 9.58904C49.9024 8.78944 48.9428 8.62952 47.1687 8.62952C46.3191 8.62952 45.0998 8.95435 44.3601 9.36915C43.6955 9.74896 43.6205 9.83391 43.0658 10.2587L41.9563 11.3881C41.5515 11.9279 41.2567 12.3926 40.9568 13.0373C40.622 13.7769 40.3271 14.8864 40.3271 15.9459L40.3321 15.9409Z" fill="#13306A"/>
<path fill-rule="evenodd" clip-rule="evenodd" d="M116.444 28.6045H120.732L129.043 9.33914C129.118 9.24419 129.153 9.12925 129.193 9.0293H124.87C124.87 9.15423 124.685 9.48906 124.65 9.619C124.54 9.8139 124.465 10.0088 124.39 10.1837L121.876 15.9558C121.726 16.3506 121.582 16.7055 121.397 17.1102C121.322 17.3052 121.247 17.4901 121.137 17.685C121.062 17.8349 120.952 18.1247 120.917 18.2747L120.142 16.5405C120.032 16.3456 119.957 16.1707 119.882 15.9658C119.732 15.561 119.588 15.2162 119.438 14.8114C118.808 13.3072 118.143 11.7379 117.519 10.2137L117.039 9.03429H112.751C112.751 9.15923 113.71 11.3531 113.785 11.5031C114.12 12.3226 114.45 13.1172 114.82 13.9418C116.074 16.8654 117.334 19.8789 118.588 22.7874C118.808 23.2472 118.808 23.0673 118.513 23.6969L116.704 27.9848C116.594 28.1697 116.484 28.4246 116.444 28.6095V28.6045Z" fill="#13306A"/>
<path fill-rule="evenodd" clip-rule="evenodd" d="M89.6226 23.627H94.2053L97.3837 19.0193C97.4187 19.1592 98.1983 20.2537 98.3432 20.4536C99.0478 21.493 99.8224 22.5775 100.522 23.627H105.14L100.227 16.5155C100.302 16.4556 100.447 16.2007 100.522 16.0758L104.51 9.96881C104.73 9.65397 104.915 9.34412 105.14 9.02428H100.522L100.117 9.62398C100.007 9.83388 99.8574 10.0288 99.7475 10.2387L97.5686 13.602C97.4936 13.7069 97.4187 13.8419 97.3487 13.9018L96.5741 12.6775C96.4991 12.5825 96.4641 12.5025 96.3892 12.3876L95.2048 10.5535C95.1298 10.4386 95.0548 10.3586 94.9849 10.2437C94.8749 10.0338 94.765 9.86386 94.6151 9.64397C94.4651 9.42408 94.3552 9.24917 94.2103 9.01929H89.6276C89.8474 9.44407 92.2512 13.0873 92.6211 13.607L94.4301 16.3756C94.5401 16.5605 94.5051 16.5455 94.2802 16.8404L93.6505 17.7399C93.0958 18.6195 92.3962 19.564 91.8015 20.4436C91.3967 21.0433 89.7675 23.3171 89.6226 23.617V23.627Z" fill="#13306A"/>
<path fill-rule="evenodd" clip-rule="evenodd" d="M58.1083 13.3321C58.1083 14.3966 58.4431 15.4211 59.1778 16.1257C59.4726 16.4006 59.8824 16.7055 60.2123 16.8904C60.4321 17.0053 60.5821 17.0853 60.8419 17.1902C62.3962 17.7799 65.1298 18.0648 65.9794 18.4596C67.5686 19.2092 66.684 20.9533 64.76 20.9533C63.6905 20.9533 62.8409 20.8984 62.1013 20.2037L62.0663 20.1687C62.0663 20.1687 62.0663 20.1587 62.0663 20.1487C61.8065 19.8739 61.5516 19.3991 61.5516 18.9843C61.3667 18.9843 57.7485 19.7439 57.6335 19.7689C57.6685 20.0488 57.7835 20.5685 57.8534 20.8084C58.2233 21.7429 58.813 22.4476 59.6625 22.9673C60.697 23.577 62.2512 24.0668 63.8754 24.0668C65.2447 24.0668 66.3492 23.9968 67.5686 23.512C68.4531 23.1522 69.1228 22.6925 69.6725 22.0078C69.9674 21.683 70.1523 21.2832 70.3022 20.8434C70.4871 20.3686 70.5621 19.8839 70.5971 19.2842L70.5221 18.4846C70.4871 18.2197 70.4121 17.9798 70.3372 17.7599C70.1523 17.3202 69.9324 16.9503 69.6325 16.6255C68.5981 15.4461 67.4136 15.2412 65.9744 14.8964C65.4596 14.7714 63.4606 14.3766 63.0208 14.2367C62.616 14.0968 62.1363 13.8819 62.0213 13.4171C61.7265 12.4126 62.6111 11.673 63.7955 11.673C64.755 11.673 65.8294 11.8929 66.3842 12.7924C66.5341 13.0023 66.679 13.3471 66.679 13.672C66.9389 13.672 67.3787 13.547 67.6035 13.5021L70.3722 12.9573C70.3722 12.6925 70.1873 12.1927 70.1123 11.9778C69.9624 11.663 69.8524 11.4331 69.6675 11.1482C68.5581 9.51906 66.3792 8.61951 64.4601 8.61951C63.3157 8.61951 62.5761 8.61951 61.5066 8.97933C59.6975 9.57903 58.1083 11.1133 58.1083 13.3222V13.3321Z" fill="#13306A"/>
<path fill-rule="evenodd" clip-rule="evenodd" d="M107.284 23.6269H111.162V9.06421H107.284V23.6269Z" fill="#13306A"/>
<path fill-rule="evenodd" clip-rule="evenodd" d="M109.203 7.41008C109.942 7.41008 110.497 7.13022 110.902 6.77539C111.087 6.60548 111.272 6.35061 111.382 6.11572C111.676 5.52602 111.641 4.73142 111.382 4.13172C111.162 3.69194 110.642 3.1622 110.197 2.9773C110.047 2.91733 109.937 2.88234 109.752 2.83736C108.938 2.63247 108.053 2.93232 107.533 3.43706C107.089 3.90183 106.869 4.38159 106.834 5.08624C106.799 5.88584 107.169 6.58549 107.833 7.01527C108.203 7.28014 108.683 7.41008 109.198 7.41008H109.203Z" fill="#13306A"/>
</svg>